<svg xmlns="http://www.w3.org/2000/svg" viewBox="0 0 15.79 15.74"><defs><style>.cls-1{fill:#fff;}</style></defs><g id="Capa_2" data-name="Capa 2"><g id="Layer_1" data-name="Layer 1"><path class="cls-1" d="M12.48,10.85,11.34,0l4.45,14.51L9.52,11.84l-2-.85,2.17-.06,1.71,0ZM13,7.94l.54,3.28.08.56-.56,0H11.93l2.53,1.11-.74-2.53-.28-.85Z"/><path class="cls-1" d="M6.1,10.44l9.64,5.3L1.2,11.08,7,7.49,8.78,6.38,7.61,8.17,6.72,9.58Zm2.12,2.12-3-1.45-.5-.26L5,10.42l.6-1L3.26,10.86l2.52.86.85.27Z"/><path class="cls-1" d="M9.18,5.42,0,11.33,10.92.81l.53,6.71.12,2.15-1-1.89L9.69,6.32Zm-2.83.86L9.53,4l.79,1.5-.15-2.71-2,1.78-.62.57Z"/></g></g></svg>